<?xml version="1.0" encoding="UTF-8"?>
<!DOCTYPE svg PUBLIC "-//W3C//DTD SVG 1.1//EN" "http://www.w3.org/Graphics/SVG/1.1/DTD/svg11.dtd">
<!-- Creator: CorelDRAW 2018 (64 bitů Zkušební verze) -->
<svg xmlns="http://www.w3.org/2000/svg" xml:space="preserve" width="2.7093mm" height="2.7093mm" version="1.1" style="shape-rendering:geometricPrecision; text-rendering:geometricPrecision; image-rendering:optimizeQuality; fill-rule:evenodd; clip-rule:evenodd"
viewBox="0 0 17.7 17.7"
 xmlns:xlink="http://www.w3.org/1999/xlink">
 <defs>
  <style type="text/css">
   <![CDATA[
    .fil0 {fill:gray}
    .fil1 {fill:white}
   ]]>
  </style>
 </defs>
 <g id="Vrstva_x0020_1">
  <metadata id="CorelCorpID_0Corel-Layer"/>
  <circle class="fil0" cx="8.85" cy="8.85" r="8.85"/>
  <path class="fil1" d="M11.75 11.47c-0.31,0.66 -0.72,1.28 -1.03,1.81 -0.19,0.33 -0.38,0.79 -0.65,0.98l-0.9 -1.66c-0.56,-1.08 -0.99,0.05 -1.28,0.57 -0.16,0.29 -0.45,0.91 -0.69,1.09l-0.86 -1.47c-0.45,-0.72 -0.8,-1.36 -0.99,-1.96 -0.01,-0.02 -0.01,-0.03 -0.02,-0.05 -0.07,-0.09 -0.14,-0.19 -0.21,-0.29 -0.04,-0.06 -0.11,-0.08 -0.17,-0.05 -0.06,0.03 -0.1,0.09 -0.09,0.16 0.11,0.75 0.41,1.24 0.94,2.12 0.87,1.45 1.35,2.83 1.92,1.73l0.68 -1.18c0.14,-0.26 0.15,-0.41 0.36,-0.57 0.08,0.36 1.06,2.17 1.4,2.17 0.28,0 0.57,-0.65 0.8,-1.06 0.52,-0.93 0.82,-1.31 1.27,-2.29 0.03,-0.06 0.01,-0.13 -0.03,-0.17 -0.05,-0.04 -0.12,-0.05 -0.17,-0.02 -0.09,0.05 -0.17,0.09 -0.26,0.14z"/>
  <path class="fil1" d="M7.79 9.71c0,0.67 0.37,1.11 0.95,1.24 0.62,0.14 1.02,-0.25 1.38,-0.61 0.43,-0.43 0.59,-0.64 0.85,-1.25 0.23,-0.54 0.38,-0.97 0.38,-1.72 0.47,0.31 0.89,1.53 0.89,2.43 0,0.04 -0,0.07 -0,0.11 -0,0.06 0.03,0.12 0.09,0.15 0.06,0.03 0.12,0.01 0.17,-0.03 0.08,-0.08 0.16,-0.17 0.23,-0.27 0.01,-1.11 -0.51,-2.11 -1.24,-3.1 -0.92,-1.24 -0.12,0.78 -1.06,2.47 -0.93,1.69 -2.16,1.85 -2.16,0.51 0,-0.77 1.26,-1.26 1.91,-3.19 0.56,-1.68 -0.83,-3.17 -1.61,-4.22 -0.18,-0.24 -0.16,-0.26 -0.54,-0.27 -0.16,0.75 0.19,1.38 -0.27,2.4 -0.31,0.69 -0.74,1.11 -1.18,1.66l-0.46 0.52c-0.02,0.02 -0.06,0.07 -0.08,0.09l-0.76 0.94c-0.22,0.32 -0.43,0.66 -0.57,1.06 -0.02,0.04 -0.01,0.09 0.01,0.13 0.03,0.06 0.07,0.12 0.1,0.17 0.03,0.05 0.09,0.08 0.15,0.07 0.06,-0.01 0.11,-0.05 0.13,-0.1 0.17,-0.53 0.51,-1.08 1.04,-1.68 0.22,-0.25 0.37,-0.46 0.61,-0.69 0.9,-0.89 1.76,-2.13 1.76,-3.5 0.52,0.35 1.3,1.69 1.3,2.75 0,1.78 -2.02,2.75 -2.02,3.97z"/>
 </g>
</svg>
