<?xml version="1.0" encoding="UTF-8"?>
<!DOCTYPE svg PUBLIC "-//W3C//DTD SVG 1.1//EN" "http://www.w3.org/Graphics/SVG/1.1/DTD/svg11.dtd">
<!-- Creator: CorelDRAW 2018 (64 bitů Zkušební verze) -->
<svg xmlns="http://www.w3.org/2000/svg" xml:space="preserve" width="2.7513mm" height="2.7513mm" version="1.1" style="shape-rendering:geometricPrecision; text-rendering:geometricPrecision; image-rendering:optimizeQuality; fill-rule:evenodd; clip-rule:evenodd"
viewBox="0 0 24.71 24.71"
 xmlns:xlink="http://www.w3.org/1999/xlink">
 <defs>
  <style type="text/css">
   <![CDATA[
    .str0 {stroke:black;stroke-width:1.52;stroke-miterlimit:22.9256}
    .fil0 {fill:gray}
    .fil1 {fill:white}
   ]]>
  </style>
 </defs>
 <g id="Vrstva_x0020_1">
  <metadata id="CorelCorpID_0Corel-Layer"/>
  <circle class="fil0 str0" cx="12.36" cy="12.35" r="11.59"/>
  <path class="fil1" d="M16.34 15.95c-0.42,0.9 -0.99,1.76 -1.42,2.48 -0.26,0.45 -0.52,1.09 -0.9,1.34l-1.24 -2.28c-0.77,-1.49 -1.36,0.07 -1.75,0.78 -0.22,0.41 -0.62,1.25 -0.95,1.5l-1.18 -2.02c-0.62,-0.99 -1.1,-1.87 -1.36,-2.7 -0.01,-0.02 -0.02,-0.04 -0.03,-0.06 -0.1,-0.13 -0.2,-0.26 -0.29,-0.4 -0.05,-0.08 -0.15,-0.11 -0.24,-0.07 -0.09,0.04 -0.14,0.12 -0.12,0.22 0.15,1.03 0.56,1.7 1.29,2.92 1.2,1.99 1.86,3.89 2.64,2.38l0.94 -1.62c0.2,-0.36 0.2,-0.56 0.5,-0.78 0.12,0.5 1.45,2.99 1.92,2.99 0.39,0 0.79,-0.9 1.1,-1.46 0.71,-1.28 1.12,-1.8 1.75,-3.15 0.04,-0.08 0.02,-0.17 -0.05,-0.23 -0.07,-0.06 -0.16,-0.07 -0.24,-0.03 -0.12,0.07 -0.24,0.13 -0.36,0.19z"/>
  <path class="fil1" d="M10.9 13.54c0,0.92 0.51,1.53 1.31,1.71 0.85,0.19 1.4,-0.35 1.89,-0.84 0.59,-0.59 0.81,-0.89 1.17,-1.72 0.32,-0.75 0.52,-1.34 0.52,-2.37 0.64,0.43 1.22,2.1 1.22,3.34 0,0.05 -0,0.1 -0,0.15 -0,0.09 0.04,0.17 0.13,0.2 0.08,0.04 0.17,0.02 0.23,-0.05 0.11,-0.12 0.22,-0.24 0.32,-0.37 0.01,-1.53 -0.7,-2.9 -1.7,-4.26 -1.26,-1.7 -0.17,1.07 -1.45,3.39 -1.28,2.32 -2.97,2.55 -2.97,0.7 0,-1.06 1.74,-1.73 2.62,-4.39 0.77,-2.3 -1.14,-4.36 -2.22,-5.81 -0.25,-0.33 -0.23,-0.36 -0.74,-0.37 -0.22,1.04 0.26,1.9 -0.37,3.3 -0.42,0.95 -1.02,1.53 -1.62,2.28l-0.63 0.71c-0.02,0.03 -0.08,0.09 -0.11,0.12l-1.05 1.29c-0.3,0.44 -0.59,0.9 -0.79,1.45 -0.02,0.06 -0.02,0.12 0.02,0.18 0.05,0.08 0.09,0.16 0.14,0.24 0.04,0.07 0.12,0.11 0.2,0.1 0.08,-0.01 0.15,-0.06 0.18,-0.14 0.24,-0.73 0.7,-1.48 1.43,-2.32 0.3,-0.34 0.51,-0.63 0.83,-0.95 1.24,-1.22 2.42,-2.93 2.42,-4.81 0.71,0.48 1.78,2.32 1.78,3.78 0,2.45 -2.78,3.77 -2.78,5.45z"/>
 </g>
</svg>
