<?xml version="1.0" encoding="UTF-8"?>
<!DOCTYPE svg PUBLIC "-//W3C//DTD SVG 1.1//EN" "http://www.w3.org/Graphics/SVG/1.1/DTD/svg11.dtd">
<!-- Creator: CorelDRAW 2018 (64 bitů Zkušební verze) -->
<svg xmlns="http://www.w3.org/2000/svg" xml:space="preserve" width="43.9209mm" height="23.7947mm" version="1.1" style="shape-rendering:geometricPrecision; text-rendering:geometricPrecision; image-rendering:optimizeQuality; fill-rule:evenodd; clip-rule:evenodd"
viewBox="0 0 1322.25 716.35"
 xmlns:xlink="http://www.w3.org/1999/xlink">
 <defs>
  <style type="text/css">
   <![CDATA[
    .fil0 {fill:white}
   ]]>
  </style>
 </defs>
 <g id="Vrstva_x0020_1">
  <metadata id="CorelCorpID_0Corel-Layer"/>
  <path class="fil0" d="M-0 0l1322.25 0 0 565.82c0,82.79 -67.74,150.53 -150.53,150.53l-1021.2 0c-82.79,0 -150.53,-67.74 -150.53,-150.53l0 -565.82zm997.79 505.14l42.91 0.13c2.13,0.01 3.96,-1.03 5.06,-2.85 1.1,-1.83 1.16,-3.93 0.16,-5.81l-20.14 -37.93c-1.02,-1.93 -2.87,-3.07 -5.05,-3.13 -2.18,-0.06 -4.08,0.98 -5.21,2.85l-22.77 37.79c-1.13,1.87 -1.16,4.03 -0.09,5.93 1.07,1.9 2.94,3 5.12,3zm58.58 17.8l-76.23 -0.24c-2.13,-0.01 -3.97,1.03 -5.07,2.85l-21.57 35.81c-1.67,2.78 -5.31,3.68 -8.09,2.01l-5.03 -3.03c-2.78,-1.67 -3.68,-5.31 -2.01,-8.09l78.13 -129.69c1.13,-1.87 3.03,-2.91 5.21,-2.85 2.18,0.06 4.03,1.2 5.05,3.13l71.32 134.31c1.52,2.87 0.42,6.45 -2.44,7.97l-5.2 2.76c-2.87,1.52 -6.45,0.42 -7.97,-2.44l-20.91 -39.37c-1.05,-1.97 -2.96,-3.12 -5.19,-3.13zm-167.53 -6.29l28.62 35.99c2.02,2.54 1.6,6.26 -0.95,8.28l-4.59 3.65c-2.54,2.02 -6.26,1.6 -8.28,-0.95l-32.8 -41.26c-1.44,-1.81 -3.64,-2.59 -5.89,-2.09 -4.41,0.98 -9.02,1.5 -13.76,1.5l-4.96 0c-3.25,0 -5.9,2.65 -5.9,5.89l0 29.72c0,3.25 -2.65,5.9 -5.89,5.9l-5.89 0c-3.25,0 -5.89,-2.65 -5.89,-5.9l0 -133.79c0,-3.25 2.65,-5.89 5.89,-5.89l22.64 0c15.68,0 29.95,5.69 40.35,14.9 10.69,9.46 17.3,22.59 17.3,37.14 0,14.55 -6.61,27.68 -17.3,37.14 -0.59,0.52 -1.19,1.03 -1.8,1.52 -2.5,2.04 -2.9,5.72 -0.9,8.24zm-42.61 -12.56l4.96 0c11.28,0 21.41,-3.98 28.68,-10.41 6.98,-6.17 11.29,-14.64 11.29,-23.95 0,-9.3 -4.32,-17.77 -11.29,-23.94 -7.26,-6.43 -17.4,-10.4 -28.68,-10.4l-4.96 0c-3.25,0 -5.9,2.65 -5.9,5.89l0 56.91c0,3.25 2.65,5.89 5.9,5.89zm-182.73 -85.54l137.95 0c3.25,0 5.89,2.65 5.89,5.89l0 5.89c0,3.25 -2.65,5.9 -5.89,5.9l-53.2 0c-3.25,0 -5.89,2.65 -5.89,5.89l0 117.15c0,3.25 -2.65,5.9 -5.89,5.9l-5.9 0c-3.25,0 -5.89,-2.65 -5.89,-5.9l0 -117.15c0,-3.25 -2.65,-5.89 -5.89,-5.89l-55.28 0c-3.25,0 -5.89,-2.65 -5.89,-5.9l0 -5.89c0,-3.25 2.65,-5.89 5.89,-5.89zm-69.82 39.59l-22.86 38.05c-1.12,1.87 -1.15,4.03 -0.08,5.93 1.07,1.9 2.94,3 5.11,3l43.61 0.14c2.14,0.01 3.98,-1.04 5.08,-2.88 1.1,-1.84 1.14,-3.95 0.12,-5.83l-20.75 -38.19c-1.04,-1.91 -2.88,-3.03 -5.05,-3.08 -2.17,-0.05 -4.06,0.99 -5.18,2.86zm-79.42 97.96l80.19 -133.47c1.12,-1.86 3.01,-2.91 5.18,-2.86 2.17,0.05 4.01,1.17 5.05,3.08l71.37 131.37c1.55,2.85 0.49,6.44 -2.36,7.99l-5.12 2.79c-2.85,1.55 -6.45,0.49 -8,-2.36l-19.9 -36.63c-1.06,-1.94 -2.95,-3.07 -5.16,-3.08l-77.25 -0.24c-2.13,-0.01 -3.97,1.03 -5.07,2.86l-23.8 39.62c-1.67,2.78 -5.3,3.69 -8.08,2.03l-5.01 -3c-1.4,-0.83 -2.3,-2.05 -2.69,-3.63 -0.4,-1.58 -0.17,-3.07 0.66,-4.47zm-13.02 -131.42c-12.32,26.44 -29.06,51.65 -41.41,72.65 -7.75,13.18 -15.34,31.92 -26.28,39.24l-36.25 -66.71c-22.58,-43.56 -39.77,2.01 -51.29,22.85 -6.54,11.84 -18.07,36.65 -27.9,43.85l-34.61 -58.99c-18.23,-29.05 -32.23,-54.59 -39.77,-78.91 -0.21,-0.7 -0.51,-1.26 -0.95,-1.84 -2.88,-3.76 -5.74,-7.67 -8.57,-11.7 -1.59,-2.27 -4.44,-3.12 -7.01,-2.09 -2.57,1.03 -4.05,3.61 -3.64,6.34 4.49,30.15 16.28,49.69 37.79,85.4 35.05,58.19 54.42,113.67 77.21,69.73l27.37 -47.52c5.8,-10.61 5.84,-16.41 14.61,-22.83 3.41,14.64 42.56,87.36 56.16,87.36 11.27,0 23.03,-26.31 32.16,-42.72 20.78,-37.34 32.79,-52.54 51.14,-92.07 1.1,-2.36 0.56,-5.05 -1.35,-6.82 -1.92,-1.76 -4.64,-2.08 -6.91,-0.79 -3.45,1.96 -6.95,3.81 -10.48,5.55zm-155.05 -65.95c0,25.82 14.32,42.78 36.67,47.83 23.83,5.38 39.21,-9.77 53.05,-23.63 16.59,-16.61 22.8,-24.84 32.88,-48.24 9.04,-20.97 14.69,-37.43 14.69,-66.44 18.08,12.11 34.32,58.99 34.32,93.6 0,1.42 -0.03,2.84 -0.1,4.27 -0.11,2.49 1.25,4.68 3.54,5.67 2.28,0.99 4.82,0.5 6.56,-1.28 3.18,-3.25 6.14,-6.67 8.84,-10.25 0.42,-42.79 -19.51,-81.27 -47.69,-119.38 -35.32,-47.78 -4.8,29.9 -40.68,95.14 -35.82,65.13 -83.36,71.36 -83.36,19.6 0,-29.84 48.67,-48.61 73.47,-123.09 21.51,-64.61 -31.83,-122.32 -62.14,-162.79 -6.95,-9.28 -6.33,-10.19 -20.69,-10.51 -6.16,29.1 7.27,53.19 -10.33,92.63 -11.87,26.6 -28.53,42.9 -45.37,63.82l-17.56 19.88c-0.59,0.69 -2.34,2.62 -2.95,3.29l-29.31 36.21c-8.47,12.42 -16.62,25.34 -22.04,40.78 -0.59,1.69 -0.43,3.38 0.47,4.93 1.3,2.23 2.6,4.44 3.9,6.65 1.21,2.04 3.36,3.12 5.72,2.87 2.36,-0.26 4.23,-1.78 4.96,-4.04 6.65,-20.42 19.54,-41.61 40.05,-64.93 8.42,-9.57 14.21,-17.6 23.34,-26.58 34.76,-34.19 67.85,-82.03 67.85,-134.96 19.9,13.33 49.92,65.04 49.92,106.08 0,68.56 -78,105.84 -78,152.88z"/>
 </g>
</svg>
