<?xml version="1.0" encoding="UTF-8"?>
<!DOCTYPE svg PUBLIC "-//W3C//DTD SVG 1.1//EN" "http://www.w3.org/Graphics/SVG/1.1/DTD/svg11.dtd">
<!-- Creator: CorelDRAW 2018 (64 bitů Zkušební verze) -->
<svg xmlns="http://www.w3.org/2000/svg" xml:space="preserve" width="44.6709mm" height="24.1697mm" version="1.1" style="shape-rendering:geometricPrecision; text-rendering:geometricPrecision; image-rendering:optimizeQuality; fill-rule:evenodd; clip-rule:evenodd"
viewBox="0 0 2486.51 1345.35"
 xmlns:xlink="http://www.w3.org/1999/xlink">
 <defs>
  <style type="text/css">
   <![CDATA[
    .str0 {stroke:white;stroke-width:41.75;stroke-miterlimit:22.9256}
    .fil1 {fill:none}
    .fil0 {fill:white}
   ]]>
  </style>
 </defs>
 <g id="Vrstva_x0020_1">
  <metadata id="CorelCorpID_0Corel-Layer"/>
  <path class="fil0" d="M1865.72 933.98l79.34 0.24c3.94,0.01 7.33,-1.9 9.36,-5.27 2.04,-3.38 2.14,-7.26 0.3,-10.74l-37.23 -70.12c-1.89,-3.57 -5.3,-5.68 -9.33,-5.78 -4.04,-0.11 -7.55,1.81 -9.63,5.27l-42.1 69.87c-2.08,3.46 -2.14,7.46 -0.16,10.97 1.98,3.52 5.43,5.54 9.46,5.56zm108.32 32.91l-140.94 -0.44c-3.95,-0.01 -7.34,1.9 -9.37,5.28l-39.89 66.21c-3.09,5.14 -9.82,6.81 -14.96,3.71l-9.31 -5.61c-5.14,-3.09 -6.81,-9.82 -3.71,-14.96l144.46 -239.8c2.08,-3.46 5.6,-5.38 9.63,-5.27 4.04,0.11 7.44,2.22 9.33,5.78l131.87 248.34c2.82,5.3 0.78,11.92 -4.51,14.74l-9.62 5.1c-5.3,2.82 -11.92,0.78 -14.73,-4.51l-38.65 -72.79c-1.94,-3.64 -5.47,-5.77 -9.6,-5.78zm-309.76 -11.63l52.91 66.54c3.73,4.7 2.95,11.58 -1.75,15.32l-8.48 6.74c-4.7,3.73 -11.58,2.95 -15.32,-1.75l-60.65 -76.29c-2.66,-3.35 -6.72,-4.78 -10.89,-3.86 -8.15,1.81 -16.68,2.78 -25.44,2.78l-9.16 0c-6.01,0 -10.9,4.89 -10.9,10.9l0 54.95c0,6.01 -4.89,10.9 -10.9,10.9l-10.9 0c-6.01,0 -10.9,-4.9 -10.9,-10.9l0 -247.38c0,-6 4.89,-10.9 10.9,-10.9l41.86 0c28.99,0 55.38,10.53 74.6,27.54 19.77,17.49 31.99,41.76 31.99,68.67 0,26.91 -12.22,51.18 -31.99,68.68 -1.09,0.96 -2.19,1.9 -3.32,2.82 -4.63,3.76 -5.37,10.58 -1.66,15.24zm-78.79 -23.22l9.16 0c20.85,0 39.59,-7.35 53.02,-19.24 12.9,-11.41 20.88,-27.07 20.88,-44.27 0,-17.19 -7.98,-32.85 -20.88,-44.27 -13.43,-11.88 -32.17,-19.24 -53.02,-19.24l-9.16 0c-6.01,0 -10.9,4.89 -10.9,10.9l0 105.23c0,6 4.9,10.9 10.9,10.9zm-337.86 -158.15l255.06 0c6.01,0 10.9,4.9 10.9,10.9l0 10.9c0,6.01 -4.89,10.9 -10.9,10.9l-98.36 0c-6.01,0 -10.9,4.89 -10.9,10.9l0 216.6c0,6.01 -4.9,10.9 -10.9,10.9l-10.9 0c-6,0 -10.9,-4.9 -10.9,-10.9l0 -216.6c0,-6.01 -4.9,-10.9 -10.9,-10.9l-102.2 0c-6.01,0 -10.9,-4.9 -10.9,-10.9l0 -10.9c0,-6 4.89,-10.9 10.9,-10.9zm-129.09 73.21l-42.27 70.36c-2.08,3.46 -2.13,7.46 -0.15,10.97 1.98,3.51 5.43,5.54 9.46,5.55l80.63 0.25c3.96,0.01 7.36,-1.91 9.4,-5.32 2.03,-3.4 2.11,-7.31 0.22,-10.79l-38.36 -70.61c-1.92,-3.53 -5.32,-5.61 -9.34,-5.69 -4.02,-0.09 -7.51,1.84 -9.58,5.28zm-146.84 181.13l148.26 -246.78c2.07,-3.45 5.56,-5.37 9.58,-5.29 4.02,0.09 7.42,2.17 9.34,5.69l131.96 242.89c2.86,5.27 0.9,11.91 -4.36,14.77l-9.47 5.16c-5.27,2.87 -11.92,0.91 -14.78,-4.37l-36.8 -67.73c-1.95,-3.6 -5.45,-5.68 -9.55,-5.7l-142.83 -0.44c-3.95,-0.01 -7.35,1.9 -9.38,5.29l-44.01 73.26c-3.09,5.14 -9.8,6.82 -14.94,3.75l-9.26 -5.54c-2.58,-1.54 -4.25,-3.79 -4.98,-6.71 -0.73,-2.92 -0.32,-5.68 1.22,-8.26zm-24.07 -242.99c-22.77,48.88 -53.74,95.49 -76.56,134.32 -14.33,24.37 -28.37,59.01 -48.59,72.56l-67.02 -123.34c-41.74,-80.54 -73.53,3.71 -94.83,42.25 -12.1,21.89 -33.41,67.76 -51.59,81.08l-64 -109.07c-33.72,-53.71 -59.6,-100.94 -73.54,-145.89 -0.4,-1.29 -0.94,-2.33 -1.76,-3.4 -5.33,-6.95 -10.61,-14.18 -15.85,-21.64 -2.94,-4.19 -8.22,-5.76 -12.97,-3.86 -4.75,1.9 -7.49,6.67 -6.74,11.73 8.31,55.75 30.1,91.88 69.86,157.9 64.8,107.59 100.61,210.17 142.75,128.93l50.6 -87.85c10.73,-19.61 10.79,-30.34 27.01,-42.21 6.31,27.07 78.69,161.52 103.84,161.52 20.84,0 42.58,-48.64 59.47,-78.98 38.43,-69.04 60.62,-97.14 94.55,-170.24 2.03,-4.37 1.04,-9.34 -2.5,-12.61 -3.55,-3.26 -8.58,-3.84 -12.77,-1.46 -6.37,3.62 -12.85,7.04 -19.38,10.26zm-286.67 -121.94c0,47.74 26.48,79.1 67.79,88.43 44.06,9.95 72.5,-18.07 98.08,-43.69 30.66,-30.71 42.15,-45.92 60.79,-89.19 16.71,-38.76 27.15,-69.21 27.15,-122.84 33.43,22.38 63.46,109.06 63.46,173.06 0,2.63 -0.06,5.26 -0.18,7.89 -0.21,4.6 2.32,8.65 6.55,10.49 4.22,1.84 8.91,0.92 12.13,-2.37 5.88,-6 11.36,-12.32 16.35,-18.95 0.78,-79.12 -36.08,-150.26 -88.17,-220.73 -65.3,-88.34 -8.88,55.28 -75.21,175.9 -66.22,120.42 -154.14,131.94 -154.14,36.23 0,-55.17 89.99,-89.88 135.84,-227.59 39.78,-119.46 -58.85,-226.16 -114.9,-301 -12.85,-17.16 -11.71,-18.85 -38.25,-19.44 -11.39,53.8 13.45,98.35 -19.09,171.27 -21.95,49.18 -52.75,79.33 -83.9,118.01l-32.46 36.76c-1.1,1.27 -4.33,4.84 -5.46,6.08l-54.19 66.95c-15.65,22.97 -30.72,46.85 -40.75,75.4 -1.1,3.12 -0.8,6.25 0.87,9.11 2.4,4.12 4.8,8.22 7.21,12.3 2.23,3.77 6.22,5.77 10.58,5.3 4.36,-0.48 7.82,-3.3 9.18,-7.46 12.29,-37.76 36.13,-76.93 74.05,-120.04 15.56,-17.7 26.27,-32.53 43.15,-49.14 64.26,-63.22 125.44,-151.68 125.44,-249.53 36.79,24.64 92.29,120.25 92.29,196.14 0,126.77 -144.22,195.68 -144.22,282.66z"/>
  <path class="fil1 str0" d="M2465.64 0l0 1046.17c0,153.07 -125.24,278.31 -278.31,278.31l-1888.13 0c-153.07,0 -278.31,-125.24 -278.31,-278.31l0 -1046.17"/>
 </g>
</svg>
